<svg
  xmlns="http://www.w3.org/2000/svg"
  version="1.1"
  xmlns:xlink="http://www.w3.org/1999/xlink"
  width="512"
  height="512"
  x="0"
  y="0"
  viewBox="0 0 24 24"
  style="enable-background: new 0 0 512 512"
  xml:space="preserve"
  class=""
>
  <g>
    <path
      d="M10 24C4.5 24 0 19.5 0 14S4.5 4 10 4s10 4.5 10 10-4.5 10-10 10zm0-19c-5 0-9 4-9 9s4 9 9 9 9-4 9-9-4-9-9-9z"
      fill="#009035"
      opacity="1"
      data-original="#009035"
      class=""
    ></path>
    <path
      d="M10 20.5c-3.6 0-6.5-2.9-6.5-6.5S6.4 7.5 10 7.5s6.5 2.9 6.5 6.5-2.9 6.5-6.5 6.5zm0-12C7 8.5 4.5 11 4.5 14S7 19.5 10 19.5s5.5-2.5 5.5-5.5S13 8.5 10 8.5z"
      fill="#009035"
      opacity="1"
      data-original="#009035"
      class=""
    ></path>
    <path
      d="M10 17c-1.7 0-3-1.3-3-3s1.3-3 3-3 3 1.3 3 3-1.3 3-3 3zm0-5c-1.1 0-2 .9-2 2s.9 2 2 2 2-.9 2-2-.9-2-2-2z"
      fill="#009035"
      opacity="1"
      data-original="#009035"
      class=""
    ></path>
    <path
      d="M10 14.5c-.1 0-.3 0-.4-.1-.2-.2-.2-.5 0-.7l7.5-7.5c.2-.2.5-.2.7 0s.2.5 0 .7l-7.5 7.5c0 .1-.2.1-.3.1z"
      fill="#009035"
      opacity="1"
      data-original="#009035"
      class=""
    ></path>
    <path
      d="M20 7h-2.5c-.3 0-.5-.2-.5-.5V4c0-.1.1-.3.1-.4L20.6.1c.2-.1.4-.1.6-.1.2.1.3.3.3.5v2h2c.2 0 .4.1.5.3 0 .2 0 .4-.1.6l-3.5 3.5c-.1 0-.3.1-.4.1zm-2-1h1.8l2.5-2.5H21c-.3 0-.5-.2-.5-.5V1.7L18 4.2z"
      fill="#009035"
      opacity="1"
      data-original="#009035"
      class=""
    ></path>
  </g>
</svg>
