<svg width="72" height="72" viewBox="0 0 72 72" fill="none" xmlns="http://www.w3.org/2000/svg">
<path d="M0 21C0 12.7157 6.71573 6 15 6H67C69.7614 6 72 8.23858 72 11V51C72 59.2843 65.2843 66 57 66H5C2.23857 66 0 63.7614 0 61V21Z" fill="#FF6B00"/>
<path d="M43.8623 32.8731C39.5229 28.5336 32.4881 28.5336 28.1486 32.8731C23.8092 37.2125 23.8092 44.2473 28.1486 48.5868C32.4881 52.9262 39.5229 52.9262 43.8623 48.5868C48.1928 44.2473 48.1928 37.2125 43.8623 32.8731ZM31.1225 52.2164C29.3975 51.4797 27.8611 50.3657 26.6393 48.9731L23.8271 53.8426L26.6842 53.3934C26.9268 53.3485 27.1783 53.4293 27.34 53.636L29.083 55.7743L31.1225 52.2164ZM45.3717 48.9731C44.1408 50.3657 42.6135 51.4797 40.8795 52.2164L42.9279 55.7653L44.6709 53.627C44.8326 53.4293 45.0842 53.3395 45.3268 53.3844L48.1838 53.8336L45.3717 48.9731ZM40.4303 36.3051C37.9865 33.8614 34.0244 33.8614 31.5807 36.3051C29.1369 38.7489 29.1369 42.711 31.5807 45.1547C34.0244 47.5985 37.9865 47.5985 40.4303 45.1547C42.874 42.711 42.874 38.7489 40.4303 36.3051ZM36.001 33.0977C40.2146 33.0977 43.6377 36.5118 43.6377 40.7344C43.6377 44.9481 40.2236 48.3711 36.001 48.3711C31.7873 48.3711 28.3643 44.9571 28.3643 40.7344C28.3732 36.5118 31.7873 33.0977 36.001 33.0977ZM32.4432 41.2375C32.2545 40.9051 32.3623 40.4918 32.6947 40.3032C33.0271 40.1145 33.4404 40.2223 33.6291 40.5547L34.7252 42.4504L38.4807 38.695C38.7502 38.4254 39.1904 38.4254 39.451 38.695C39.7205 38.9645 39.7205 39.3957 39.451 39.6653L35.0666 44.0496C34.7521 44.3641 34.2131 44.3012 33.9885 43.9059L32.4432 41.2375ZM51.8584 23.0981L53.215 25.9102L56.3057 26.3325C56.8357 26.4043 57.0244 27.0512 56.6561 27.4106L54.401 29.5668L54.958 32.6395C55.0479 33.1606 54.4998 33.5469 54.0416 33.3043L51.2924 31.8309L48.5432 33.3043C48.0939 33.5469 47.51 33.1696 47.6357 32.6035L48.1838 29.5668L45.9287 27.4106C45.5514 27.0512 45.758 26.4043 46.2881 26.3325L49.3697 25.9102L50.7264 23.0981C50.951 22.6219 51.6248 22.6309 51.8584 23.0981ZM21.2756 23.0981L22.6322 25.9102L25.7228 26.3325C26.2439 26.4043 26.4416 27.0512 26.0732 27.4106L23.8182 29.5668L24.3752 32.6395C24.465 33.1606 23.917 33.5469 23.4678 33.3043L20.7186 31.8309L17.9693 33.3043C17.5201 33.5469 16.9451 33.1696 17.0619 32.6035L17.61 29.5668L15.3549 27.4106C14.9775 27.0512 15.1842 26.4043 15.7143 26.3325L18.7959 25.9102L20.1525 23.0981C20.3771 22.6219 21.051 22.6309 21.2756 23.0981ZM36.567 16.5844L37.9236 19.3965L41.0143 19.8188C41.5354 19.8907 41.733 20.5375 41.3647 20.8969L39.1096 23.0532L39.6666 26.1258C39.7564 26.6469 39.2084 27.0332 38.7502 26.7907L36.001 25.3082L33.2518 26.7817C32.8025 27.0243 32.2275 26.6469 32.3443 26.0809L32.8924 23.0442L30.6373 20.8879C30.26 20.5285 30.4666 19.8817 30.9967 19.8098L34.0783 19.3875L35.435 16.5754C35.6686 16.1082 36.3424 16.1172 36.567 16.5844Z" fill="white"/>
</svg>
