<svg width="512" height="512" viewBox="0 0 512 512" fill="none" xmlns="http://www.w3.org/2000/svg">
  <path
    d="M471.799 407.306L440.551 364.354C436.926 359.373 431.538 356.629 425.379 356.629H387.653V335.725C387.653 333.869 386.915 332.088 385.602 330.775C384.29 329.463 382.509 328.725 380.653 328.725H354.88C389.499 302.286 410.217 261.18 410.217 216.613C410.217 156.352 371.946 103.082 315.886 83.4181L381.997 65.1941C394.166 61.8401 401.984 53.0311 402.399 42.2071C402.803 31.6461 395.757 17.6681 374.769 10.1121C352.046 1.9321 329.962 1.9521 307.254 10.1731L160.82 63.1881L116.155 32.6421C114.819 31.7257 113.207 31.3032 111.594 31.4471L76.5917 34.5051C75.3357 34.6149 74.1328 35.0619 73.1098 35.7988C72.0869 36.5358 71.282 37.5353 70.7801 38.6918C70.2782 39.8483 70.098 41.1189 70.2584 42.3694C70.4188 43.6198 70.914 44.8038 71.6917 45.7961L102.012 84.4801L44.3146 105.368C41.357 106.438 38.8681 108.512 37.2809 111.227C35.6937 113.943 35.1087 117.129 35.6276 120.231C36.1457 123.333 37.7347 126.155 40.1183 128.207C42.5018 130.259 45.5291 131.41 48.6736 131.461C53.7096 131.543 58.6346 131.585 63.4656 131.585C100.772 131.585 132.249 129.096 162.917 123.558C140.452 149.1 127.919 181.901 127.919 216.614C127.919 261.181 148.637 302.287 183.255 328.726H155.12C153.263 328.726 151.483 329.464 150.17 330.776C148.857 332.089 148.12 333.87 148.12 335.726V407.976C148.12 409.833 148.857 411.613 150.17 412.926C151.483 414.239 153.263 414.976 155.12 414.976C156.976 414.976 158.757 414.239 160.069 412.926C161.382 411.613 162.12 409.833 162.12 407.976V342.726H373.653V470.138H231.436C227.125 461.641 218.307 455.8 208.145 455.8C197.983 455.8 189.165 461.641 184.854 470.138H162.119V457.851C162.119 455.995 161.381 454.214 160.068 452.901C158.756 451.589 156.975 450.851 155.119 450.851C153.262 450.851 151.482 451.589 150.169 452.901C148.856 454.214 148.119 455.995 148.119 457.851V477.138C148.119 478.995 148.856 480.775 150.169 482.088C151.482 483.401 153.262 484.138 155.119 484.138H182.142C183.28 497.489 194.503 508.009 208.144 508.009C221.785 508.009 233.009 497.49 234.146 484.138H395.443C396.581 497.489 407.804 508.009 421.445 508.009C435.086 508.009 446.31 497.49 447.447 484.138H469.557C471.413 484.138 473.194 483.401 474.506 482.088C475.819 480.775 476.557 478.995 476.557 477.138V421.941C476.557 416.496 475 411.709 471.797 407.306H471.799ZM220.971 297.583C234.059 292.236 247.95 289.113 262.068 288.343V328.725H241.246C233.363 320.966 226.508 310.29 220.971 297.583ZM142.111 209.613C143.815 178.155 156.967 148.838 179.137 126.715C186.568 132.866 194.611 138.237 203.14 142.746C196.307 162.581 192.326 185.461 191.68 209.613H142.111ZM229.698 119.05C231.488 119.533 233.348 119.799 235.243 119.799C237.12 119.799 239.029 119.549 240.926 119.027L262.068 113.199V144.884C247.951 144.114 234.062 140.992 220.975 135.646C223.592 129.646 226.505 124.077 229.698 119.05ZM276.067 223.613H332.441C331.799 245.544 328.167 266.478 322.163 284.502C307.479 278.542 291.895 275.102 276.067 274.325V223.613ZM276.067 209.613V158.902C291.921 158.124 307.531 154.673 322.236 148.695C328.208 166.649 331.81 187.541 332.443 209.613H276.067ZM276.067 144.883V109.339L295.201 104.065C295.513 103.979 295.812 103.863 296.118 103.763C304.373 111.589 311.519 122.504 317.241 135.613C304.13 140.98 290.213 144.113 276.067 144.884V144.883ZM307.559 95.3971C322.419 100.1 336.282 107.51 348.448 117.253C342.6 121.933 336.35 126.086 329.771 129.664C323.722 115.905 316.215 104.207 307.56 95.3961L307.559 95.3971ZM295.938 87.0761C295.462 87.9241 294.824 88.6694 294.058 89.269C293.293 89.8685 292.417 90.3104 291.48 90.5691L237.205 105.53C233.267 106.614 229.181 104.295 228.095 100.357C227.574 98.4651 227.827 96.4701 228.81 94.7391C229.793 93.0081 231.375 91.7691 233.268 91.2471L287.544 76.2861C288.179 76.1107 288.835 76.0215 289.494 76.0211C290.761 76.0211 292.019 76.3521 293.161 77.0001C294.009 77.4749 294.755 78.1133 295.354 78.8784C295.954 79.6435 296.396 80.5201 296.654 81.4573C296.913 82.3944 296.983 83.3736 296.86 84.3379C296.737 85.3023 296.424 86.2327 295.939 87.0751L295.938 87.0761ZM217.592 110.514C217.753 110.748 217.931 110.967 218.1 111.193C214.482 116.827 211.203 123.001 208.276 129.619C201.968 126.181 195.963 122.214 190.326 117.761C195.699 116.461 201.052 115.075 206.382 113.605L217.591 110.515L217.592 110.514ZM215.973 148.726C230.656 154.685 246.238 158.125 262.066 158.902V209.613H205.685C206.324 187.813 209.933 166.851 215.972 148.725L215.973 148.726ZM262.066 223.614V274.325C246.237 275.102 230.653 278.542 215.97 284.502C209.966 266.478 206.334 245.544 205.692 223.613L262.066 223.614ZM276.066 288.344C290.184 289.113 304.074 292.236 317.163 297.584C311.626 310.291 304.772 320.967 296.888 328.726H276.066V288.344ZM329.866 303.614C336.408 307.18 342.624 311.314 348.442 315.97C342.382 320.799 335.896 325.068 329.066 328.726H315.403C320.868 321.483 325.715 313.026 329.866 303.614ZM359.027 306.536C351.587 300.376 343.535 294.996 334.996 290.482C341.777 270.743 345.795 247.848 346.447 223.614H396.006C394.283 255.321 380.928 284.67 359.027 306.536ZM396.017 209.614H346.444C345.777 185.528 341.69 162.599 334.882 142.806C343.451 138.286 351.531 132.894 358.995 126.717C380.64 148.413 394.268 177.719 396.017 209.614ZM90.6786 47.3271L110.319 45.6111L144.605 69.0591L115.867 79.4631L90.6786 47.3271ZM51.9066 117.508L312.02 23.3371C328.992 17.1921 345.559 16.3861 362.434 20.9051L334.547 28.9471C333.654 29.1938 332.82 29.615 332.091 30.1864C331.363 30.7577 330.755 31.4679 330.303 32.2758C329.851 33.0837 329.564 33.9732 329.458 34.8929C329.352 35.8126 329.429 36.7441 329.686 37.6337C329.942 38.5232 330.373 39.353 330.952 40.075C331.532 40.7971 332.248 41.397 333.061 41.8401C333.874 42.2832 334.767 42.5607 335.688 42.6565C336.608 42.7523 337.539 42.6644 338.426 42.3981L381.952 29.8461C386.739 33.9021 388.539 38.3121 388.41 41.6711C388.232 46.3171 384.539 49.9721 378.278 51.6981L307.136 71.3091C305.303 68.6414 302.888 66.4249 300.074 64.8271C295.092 61.9971 289.321 61.2741 283.824 62.7901L229.548 77.7511C224.051 79.2661 219.465 82.8451 216.636 87.8271C215.038 90.6412 214.1 93.7816 213.894 97.0111L202.664 100.107C155.139 113.206 111.264 118.284 51.9066 117.508ZM142.127 223.613H191.686C192.338 247.848 196.357 270.742 203.137 290.481C194.598 294.995 186.545 300.375 179.106 306.535C157.204 284.669 143.849 255.319 142.127 223.613ZM189.691 315.969C195.508 311.314 201.724 307.179 208.267 303.613C212.418 313.025 217.264 321.481 222.73 328.725H209.067C202.236 325.067 195.751 320.798 189.691 315.969ZM208.145 494.008C201.471 494.008 196.041 488.578 196.041 481.904C196.041 475.23 201.471 469.8 208.145 469.8C214.819 469.8 220.249 475.23 220.249 481.904C220.249 488.578 214.819 494.008 208.145 494.008ZM421.446 494.008C414.772 494.008 409.342 488.578 409.342 481.904C409.342 475.23 414.772 469.8 421.446 469.8C428.12 469.8 433.55 475.23 433.55 481.904C433.55 488.578 428.12 494.008 421.446 494.008ZM444.737 470.137C440.426 461.64 431.608 455.799 421.446 455.799C411.284 455.799 402.466 461.64 398.156 470.137H387.652V370.629H425.378C427.032 370.629 428.256 371.252 429.229 372.59L460.477 415.542C461.916 417.521 462.558 419.494 462.558 421.94V444.914H449.911V458.914H462.558V470.137H444.736H444.737ZM100.52 383.586C98.6631 383.586 96.8827 382.849 95.5699 381.536C94.2571 380.223 93.5196 378.443 93.5196 376.586C93.5196 374.73 94.2571 372.949 95.5699 371.636C96.8827 370.324 98.6631 369.586 100.52 369.586H134.567C136.423 369.586 138.204 370.324 139.516 371.636C140.829 372.949 141.567 374.73 141.567 376.586C141.567 378.443 140.829 380.223 139.516 381.536C138.204 382.849 136.423 383.586 134.567 383.586H100.52ZM122.66 354.175H81.2597C79.4031 354.175 77.6227 353.438 76.3099 352.125C74.9971 350.812 74.2597 349.032 74.2597 347.175C74.2597 345.319 74.9971 343.538 76.3099 342.225C77.6227 340.913 79.4031 340.175 81.2597 340.175H122.66C124.516 340.175 126.297 340.913 127.609 342.225C128.922 343.538 129.66 345.319 129.66 347.175C129.66 349.032 128.922 350.812 127.609 352.125C126.297 353.438 124.516 354.175 122.66 354.175ZM173.567 439.21H128.811C126.954 439.21 125.174 438.473 123.861 437.16C122.548 435.847 121.811 434.067 121.811 432.21C121.811 430.354 122.548 428.573 123.861 427.26C125.174 425.948 126.954 425.21 128.811 425.21H173.567C175.423 425.21 177.204 425.948 178.516 427.26C179.829 428.573 180.567 430.354 180.567 432.21C180.567 434.067 179.829 435.847 178.516 437.16C177.204 438.473 175.423 439.21 173.567 439.21ZM128.173 414.754H105.157C103.3 414.754 101.52 414.017 100.207 412.704C98.8941 411.391 98.1566 409.611 98.1566 407.754C98.1566 405.898 98.8941 404.117 100.207 402.804C101.52 401.492 103.3 400.754 105.157 400.754H128.173C130.029 400.754 131.81 401.492 133.122 402.804C134.435 404.117 135.173 405.898 135.173 407.754C135.173 409.611 134.435 411.391 133.122 412.704C131.81 414.017 130.029 414.754 128.173 414.754ZM324.233 440.036C326.089 440.036 327.87 439.299 329.182 437.986C330.495 436.673 331.233 434.893 331.233 433.036V376.688C331.233 374.832 330.495 373.051 329.182 371.738C327.87 370.426 326.089 369.688 324.233 369.688H211.538C209.681 369.688 207.901 370.426 206.588 371.738C205.275 373.051 204.538 374.832 204.538 376.688V433.036C204.538 434.893 205.275 436.673 206.588 437.986C207.901 439.299 209.681 440.036 211.538 440.036H324.233ZM317.233 426.036H274.885V383.688H289.059V394.633H303.059V383.688H317.233V426.036ZM218.538 383.688H232.712V394.633H246.712V383.688H260.886V426.036H218.538V383.688Z"
    fill="#009035"
  />
</svg>
