<svg width="72" height="72" viewBox="0 0 72 72" fill="none" xmlns="http://www.w3.org/2000/svg">
<path d="M0 21C0 12.7157 6.71573 6 15 6H67C69.7614 6 72 8.23858 72 11V51C72 59.2843 65.2843 66 57 66H5C2.23857 66 0 63.7614 0 61V21Z" fill="#FF6B00"/>
<path d="M36 13C27.9172 13 21.1758 19.511 21.1758 27.8242C21.1758 30.9869 22.1261 33.8071 23.9501 36.4498L34.8655 53.4823C35.3951 54.3103 36.606 54.3087 37.1345 53.4823L48.0973 36.3918C49.8819 33.8689 50.8242 30.9065 50.8242 27.8242C50.8242 19.6501 44.1741 13 36 13ZM36 34.5625C32.2847 34.5625 29.2617 31.5395 29.2617 27.8242C29.2617 24.1089 32.2847 21.0859 36 21.0859C39.7153 21.0859 42.7383 24.1089 42.7383 27.8242C42.7383 31.5395 39.7153 34.5625 36 34.5625Z" fill="white"/>
<path d="M46.5354 43.9688L39.7494 54.5781C37.9929 57.3167 33.9973 57.3078 32.2492 54.5807L25.4522 43.9715C19.4718 45.3542 15.7852 47.8872 15.7852 50.9141C15.7852 56.1666 26.2006 59.0001 36 59.0001C45.7994 59.0001 56.2148 56.1666 56.2148 50.9141C56.2148 47.885 52.5231 45.3507 46.5354 43.9688Z" fill="white"/>
</svg>
