<svg width="512" height="512" viewBox="0 0 512 512" fill="none" xmlns="http://www.w3.org/2000/svg">
  <path
    d="M16.64 348.864C16.7768 350.578 17.4623 352.203 18.5949 353.497C19.7275 354.791 21.247 355.685 22.928 356.048L50.808 362.064C51.792 366.816 53.04 371.504 54.552 376.08L33.448 395.2C32.1739 396.355 31.306 397.891 30.9731 399.578C30.6402 401.266 30.8601 403.015 31.6 404.568C35.2521 412.325 39.5218 419.775 44.368 426.848C45.3451 428.261 46.7509 429.321 48.3775 429.873C50.0041 430.425 51.7651 430.439 53.4 429.912L80.496 421.184C83.736 424.816 87.184 428.264 90.816 431.504L82.088 458.6C81.5614 460.235 81.5751 461.996 82.1269 463.623C82.6787 465.249 83.7393 466.655 85.152 467.632C92.2245 472.478 99.6752 476.748 107.432 480.4C108.985 481.14 110.734 481.36 112.422 481.027C114.109 480.694 115.645 479.826 116.8 478.552L135.92 457.448C140.504 458.952 145.192 460.208 149.944 461.192L155.96 489.072C156.704 492.52 159.624 495.072 163.136 495.36C167.392 495.696 171.656 496 176 496C180.344 496 184.608 495.696 188.864 495.36C190.578 495.223 192.203 494.538 193.497 493.405C194.791 492.272 195.685 490.753 196.048 489.072L202.064 461.192C206.806 460.213 211.489 458.963 216.088 457.448L235.208 478.552C236.363 479.827 237.898 480.696 239.586 481.029C241.273 481.362 243.024 481.141 244.576 480.4C252.331 476.745 259.782 472.475 266.856 467.632C268.269 466.655 269.329 465.249 269.881 463.623C270.433 461.996 270.447 460.235 269.92 458.6L261.192 431.504C264.824 428.264 268.272 424.816 271.512 421.192L298.608 429.92C300.243 430.448 302.004 430.435 303.631 429.883C305.258 429.331 306.664 428.27 307.64 426.856C312.486 419.783 316.756 412.333 320.408 404.576C321.148 403.023 321.368 401.274 321.035 399.586C320.702 397.899 319.834 396.363 318.56 395.208L297.456 376.088C298.96 371.504 300.216 366.816 301.2 362.064L329.08 356.048C332.528 355.304 335.08 352.384 335.368 348.872C335.696 344.608 336 340.344 336 336C336 331.656 335.696 327.392 335.36 323.136C335.223 321.422 334.538 319.797 333.405 318.503C332.272 317.209 330.753 316.315 329.072 315.952L301.192 309.936C300.213 305.194 298.963 300.511 297.448 295.912L318.552 276.792C319.826 275.637 320.694 274.101 321.027 272.414C321.36 270.726 321.14 268.977 320.4 267.424C316.745 259.669 312.475 252.218 307.632 245.144C306.656 243.73 305.25 242.669 303.623 242.117C301.996 241.565 300.235 241.552 298.6 242.08L271.504 250.808C268.263 247.175 264.817 243.729 261.184 240.488L269.912 213.392C270.439 211.757 270.425 209.996 269.873 208.369C269.321 206.743 268.261 205.337 266.848 204.36C259.775 199.514 252.325 195.244 244.568 191.592C243.016 190.849 241.265 190.628 239.577 190.961C237.889 191.294 236.354 192.164 235.2 193.44L216.08 214.544C211.479 213.033 206.797 211.783 202.056 210.8L196.04 182.92C195.677 181.241 194.783 179.723 193.491 178.591C192.198 177.458 190.576 176.772 188.864 176.632C180.299 175.952 171.693 175.952 163.128 176.632C161.414 176.769 159.789 177.454 158.495 178.587C157.201 179.719 156.307 181.239 155.944 182.92L149.928 210.8C145.176 211.784 140.488 213.032 135.912 214.544L116.792 193.44C115.637 192.166 114.101 191.298 112.414 190.965C110.726 190.632 108.977 190.852 107.424 191.592C99.6672 195.244 92.2165 199.514 85.144 204.36C83.7313 205.337 82.6707 206.743 82.1189 208.369C81.5671 209.996 81.5534 211.757 82.08 213.392L90.808 240.488C87.176 243.728 83.728 247.176 80.488 250.808L53.4 242.08C51.7653 241.551 50.0034 241.563 48.3762 242.115C46.749 242.667 45.3433 243.729 44.368 245.144C39.5218 252.216 35.2521 259.667 31.6 267.424C30.8601 268.977 30.6402 270.726 30.9731 272.414C31.306 274.101 32.1739 275.637 33.448 276.792L54.552 295.912C53.0414 300.513 51.7914 305.195 50.808 309.936L22.928 315.952C19.48 316.696 16.928 319.616 16.64 323.128C16.304 327.392 16 331.656 16 336C16 340.344 16.304 344.608 16.64 348.864ZM32.168 330.328L59.384 324.448C60.9558 324.109 62.3888 323.303 63.4962 322.138C64.6036 320.972 65.334 319.499 65.592 317.912C66.792 310.536 68.728 303.296 71.344 296.384C71.9138 294.881 72.0171 293.241 71.6403 291.678C71.2635 290.115 70.4242 288.702 69.232 287.624L48.68 269C50.472 265.568 52.344 262.28 54.28 259.168L80.648 267.664C83.768 268.664 87.208 267.664 89.296 265.12C94.0315 259.332 99.3324 254.032 105.12 249.296C107.664 247.216 108.68 243.784 107.664 240.648L99.168 214.28C102.28 212.336 105.56 210.464 109 208.68L127.624 229.24C129.84 231.68 133.328 232.52 136.392 231.352C143.354 228.718 150.564 226.791 157.912 225.6C159.499 225.342 160.972 224.612 162.138 223.504C163.304 222.397 164.109 220.964 164.448 219.392L170.32 192.176C174.088 191.976 177.92 191.968 181.672 192.176L187.552 219.392C187.891 220.964 188.696 222.397 189.862 223.504C191.028 224.612 192.501 225.342 194.088 225.6C201.464 226.8 208.704 228.736 215.616 231.352C217.119 231.923 218.759 232.027 220.322 231.65C221.885 231.273 223.298 230.433 224.376 229.24L243 208.688C246.432 210.48 249.72 212.352 252.832 214.288L244.336 240.656C243.328 243.792 244.336 247.216 246.88 249.304C252.668 254.04 257.968 259.34 262.704 265.128C263.72 266.376 265.09 267.286 266.634 267.74C268.177 268.195 269.822 268.171 271.352 267.672L297.72 259.176C299.664 262.288 301.536 265.568 303.32 269L282.76 287.624C281.567 288.704 280.727 290.118 280.351 291.682C279.974 293.246 280.078 294.888 280.648 296.392C283.264 303.288 285.2 310.528 286.4 317.912C286.658 319.499 287.388 320.972 288.496 322.138C289.603 323.303 291.036 324.109 292.608 324.448L319.824 330.32C319.928 332.2 320 334.096 320 336C320 337.904 319.936 339.8 319.832 341.672L292.616 347.552C291.044 347.891 289.611 348.696 288.504 349.862C287.396 351.028 286.666 352.501 286.408 354.088C285.214 361.438 283.287 368.65 280.656 375.616C280.086 377.119 279.983 378.759 280.36 380.322C280.736 381.885 281.576 383.298 282.768 384.376L303.32 403C301.528 406.432 299.656 409.72 297.72 412.832L271.352 404.336C269.822 403.836 268.177 403.812 266.633 404.266C265.089 404.72 263.719 405.631 262.704 406.88C257.966 412.666 252.666 417.966 246.88 422.704C244.336 424.784 243.328 428.216 244.336 431.344L252.832 457.712C249.72 459.656 246.44 461.528 243.008 463.312L224.384 442.752C223.302 441.563 221.888 440.726 220.324 440.349C218.761 439.973 217.121 440.074 215.616 440.64C208.72 443.256 201.48 445.192 194.096 446.392C192.509 446.65 191.036 447.38 189.87 448.488C188.704 449.595 187.899 451.028 187.56 452.6L181.688 479.816C177.92 480.016 174.088 480.024 170.336 479.816L164.456 452.6C164.117 451.028 163.312 449.595 162.146 448.488C160.98 447.38 159.507 446.65 157.92 446.392C150.57 445.198 143.358 443.271 136.392 440.64C134.889 440.069 133.249 439.965 131.686 440.342C130.123 440.719 128.71 441.559 127.632 442.752L109.008 463.304C105.662 461.561 102.382 459.693 99.176 457.704L107.672 431.336C108.68 428.2 107.672 424.776 105.128 422.688C99.3404 417.952 94.0395 412.652 89.304 406.864C88.2859 405.619 86.9158 404.71 85.3729 404.256C83.83 403.802 82.1861 403.825 80.656 404.32L54.288 412.816C52.2911 409.615 50.423 406.335 48.688 402.984L69.248 384.36C70.4409 383.28 71.2805 381.866 71.6573 380.302C72.0341 378.738 71.9305 377.096 71.36 375.592C68.7259 368.63 66.7988 361.42 65.608 354.072C65.35 352.485 64.6196 351.012 63.5122 349.846C62.4048 348.68 60.9718 347.875 59.4 347.536L32.168 341.68C32.072 339.8 32 337.904 32 336C32 334.096 32.064 332.2 32.168 330.328ZM433.752 129.88C435.226 129.416 436.533 128.535 437.517 127.344C438.501 126.153 439.119 124.703 439.296 123.168C439.776 119.128 440 115.472 440 112C440 108.528 439.776 104.872 439.304 100.832C439.127 99.2973 438.509 97.8469 437.525 96.6558C436.541 95.4647 435.234 94.584 433.76 94.1199L411.576 87.1519C410.915 85.3407 410.178 83.5578 409.368 81.8079L420.12 61.2079C420.833 59.8386 421.135 58.2925 420.99 56.7556C420.845 55.2186 420.26 53.7562 419.304 52.5439C414.656 46.6723 409.344 41.3595 403.472 36.7119C402.261 35.7548 400.799 35.1679 399.262 35.0217C397.725 34.8756 396.178 35.1763 394.808 35.8879L374.192 46.6399C372.441 45.8361 370.658 45.1022 368.848 44.4399L361.88 22.2559C361.416 20.7824 360.535 19.4748 359.344 18.491C358.153 17.5072 356.703 16.8893 355.168 16.7119C347.75 15.7679 340.242 15.7679 332.824 16.7119C331.289 16.8893 329.839 17.5072 328.648 18.491C327.457 19.4748 326.576 20.7824 326.112 22.2559L319.144 44.4399C317.328 45.1039 315.544 45.8399 313.8 46.6479L293.2 35.8959C291.83 35.1852 290.284 34.8842 288.748 35.0289C287.211 35.1736 285.749 35.7579 284.536 36.7119C278.664 41.3595 273.352 46.6723 268.704 52.5439C267.745 53.7545 267.157 55.2167 267.011 56.7541C266.865 58.2915 267.166 59.8383 267.88 61.2079L278.624 81.8079C277.824 83.5519 277.088 85.3359 276.424 87.1519L254.24 94.1199C252.767 94.584 251.459 95.4647 250.475 96.6558C249.491 97.8469 248.873 99.2973 248.696 100.832C248.224 104.872 248 108.528 248 112C248 115.472 248.224 119.128 248.696 123.168C248.873 124.703 249.491 126.153 250.475 127.344C251.459 128.535 252.767 129.416 254.24 129.88L276.424 136.848C277.088 138.664 277.824 140.448 278.632 142.192L267.88 162.792C266.424 165.584 266.744 168.976 268.696 171.456C273.344 177.328 278.656 182.64 284.528 187.288C287 189.248 290.4 189.56 293.192 188.112L313.792 177.368C315.536 178.168 317.32 178.904 319.136 179.568L326.104 201.752C326.568 203.225 327.449 204.533 328.64 205.517C329.831 206.501 331.281 207.119 332.816 207.296C336.872 207.776 340.528 208 344 208C347.472 208 351.128 207.776 355.168 207.304C356.703 207.127 358.153 206.509 359.344 205.525C360.535 204.541 361.416 203.233 361.88 201.76L368.848 179.576C370.664 178.912 372.448 178.176 374.192 177.368L394.792 188.12C396.161 188.835 397.707 189.138 399.245 188.993C400.782 188.848 402.245 188.262 403.456 187.304C409.328 182.656 414.64 177.344 419.288 171.472C420.247 170.261 420.835 168.799 420.981 167.262C421.127 165.724 420.826 164.178 420.112 162.808L409.36 142.208C410.168 140.464 410.904 138.68 411.568 136.864L433.752 129.88ZM402.872 122.808C400.344 123.608 398.376 125.6 397.608 128.144C396.531 131.728 395.1 135.196 393.336 138.496C392.716 139.645 392.387 140.928 392.379 142.234C392.37 143.54 392.683 144.827 393.288 145.984L403.44 165.44C401.544 167.544 399.536 169.552 397.44 171.44L377.984 161.288C376.827 160.685 375.539 160.373 374.234 160.382C372.929 160.39 371.646 160.718 370.496 161.336C367.196 163.1 363.728 164.531 360.144 165.608C358.893 165.985 357.753 166.661 356.824 167.579C355.894 168.496 355.202 169.626 354.808 170.872L348.216 191.864C345.408 192.04 342.592 192.04 339.784 191.864L333.192 170.872C332.798 169.626 332.106 168.496 331.176 167.579C330.247 166.661 329.107 165.985 327.856 165.608C324.273 164.536 320.808 163.104 317.512 161.336C316.361 160.716 315.077 160.388 313.77 160.38C312.463 160.371 311.174 160.683 310.016 161.288L290.56 171.44C288.457 169.545 286.455 167.543 284.56 165.44L294.712 145.984C295.315 144.827 295.627 143.539 295.618 142.234C295.61 140.929 295.282 139.645 294.664 138.496C292.9 135.196 291.469 131.728 290.392 128.144C290.015 126.893 289.339 125.753 288.421 124.824C287.504 123.894 286.373 123.202 285.128 122.808L264.136 116.216C263.951 113.408 263.951 110.592 264.136 107.784L285.128 101.192C287.656 100.392 289.624 98.3999 290.392 95.8559C291.48 92.2319 292.92 88.7519 294.664 85.5119C295.284 84.3614 295.612 83.0766 295.62 81.7699C295.629 80.4632 295.317 79.1743 294.712 78.0159L284.56 58.5599C286.456 56.4559 288.464 54.4479 290.56 52.5599L310.016 62.7119C312.36 63.9359 315.176 63.9119 317.504 62.6639C320.804 60.8997 324.272 59.4686 327.856 58.3919C330.392 57.6319 332.392 55.6559 333.192 53.1279L339.784 32.1359C342.592 31.9599 345.408 31.9599 348.216 32.1359L354.808 53.1279C355.608 55.6559 357.6 57.6239 360.144 58.3919C363.768 59.4799 367.248 60.9199 370.488 62.6639C371.639 63.2835 372.923 63.6119 374.23 63.6203C375.537 63.6286 376.826 63.3168 377.984 62.7119L397.44 52.5599C399.544 54.4559 401.552 56.4639 403.44 58.5599L393.288 78.0159C392.685 79.1733 392.373 80.4607 392.382 81.7659C392.39 83.0711 392.718 84.3544 393.336 85.5039C395.08 88.7599 396.52 92.2399 397.608 95.8559C398.368 98.3919 400.344 100.392 402.872 101.192L423.864 107.784C424.049 110.592 424.049 113.408 423.864 116.216L402.872 122.808ZM490.096 279.712L476.352 274.832C475.573 272.606 474.673 270.424 473.656 268.296L479.904 255.136C480.543 253.796 480.794 252.303 480.631 250.828C480.467 249.352 479.894 247.951 478.976 246.784C474.965 241.658 470.347 237.038 465.224 233.024C464.054 232.108 462.652 231.536 461.176 231.373C459.699 231.209 458.206 231.459 456.864 232.096L443.696 238.344C441.571 237.328 439.392 236.431 437.168 235.656L432.28 221.912C431.78 220.511 430.901 219.276 429.739 218.347C428.578 217.417 427.181 216.829 425.704 216.648C419.26 215.792 412.732 215.792 406.288 216.648C404.81 216.826 403.412 217.413 402.25 218.343C401.088 219.273 400.209 220.509 399.712 221.912L394.832 235.656C392.6 236.44 390.416 237.336 388.296 238.352L375.136 232.104C373.795 231.469 372.303 231.219 370.828 231.383C369.353 231.547 367.953 232.118 366.784 233.032C361.672 237.032 357.04 241.656 353.024 246.784C352.11 247.955 351.539 249.356 351.375 250.832C351.212 252.309 351.461 253.801 352.096 255.144L358.344 268.312C357.328 270.437 356.431 272.616 355.656 274.84L341.912 279.728C340.511 280.228 339.276 281.107 338.347 282.269C337.417 283.43 336.829 284.827 336.648 286.304C336.208 289.848 336 293.024 336 296C336 298.976 336.208 302.144 336.64 305.704C337 308.712 339.04 311.264 341.904 312.28L355.648 317.16C356.432 319.392 357.328 321.576 358.344 323.696L352.096 336.856C351.457 338.196 351.206 339.689 351.369 341.164C351.533 342.64 352.106 344.041 353.024 345.208C357.024 350.32 361.648 354.952 366.776 358.968C369.16 360.832 372.408 361.192 375.136 359.896L388.304 353.648C390.416 354.656 392.6 355.56 394.832 356.336L399.72 370.08C400.736 372.936 403.288 374.976 406.296 375.344C409.856 375.792 413.024 376 416 376C418.976 376 422.144 375.792 425.704 375.36C427.182 375.182 428.58 374.595 429.742 373.665C430.904 372.735 431.783 371.499 432.28 370.096L437.16 356.352C439.392 355.568 441.576 354.672 443.696 353.656L456.856 359.904C458.196 360.545 459.688 360.797 461.165 360.633C462.641 360.469 464.041 359.895 465.208 358.976C470.32 354.976 474.952 350.352 478.968 345.224C480.832 342.84 481.192 339.6 479.896 336.864L473.648 323.696C474.656 321.584 475.56 319.4 476.336 317.168L490.08 312.28C492.936 311.264 494.976 308.712 495.344 305.704C495.792 302.144 496 298.976 496 296C496 293.024 495.792 289.856 495.36 286.296C495.182 284.817 494.596 283.418 493.666 282.254C492.736 281.091 491.499 280.211 490.096 279.712ZM479.92 298.92L467.24 303.424C466.029 303.854 464.94 304.569 464.064 305.509C463.188 306.449 462.552 307.586 462.208 308.824C461.175 312.584 459.684 316.203 457.768 319.6C456.488 321.864 456.392 324.616 457.504 326.968L463.248 339.072C461.92 340.528 460.528 341.92 459.08 343.24L446.976 337.496C445.816 336.948 444.542 336.686 443.26 336.732C441.978 336.778 440.726 337.13 439.608 337.76C436.248 339.664 432.624 341.152 428.84 342.2C427.602 342.545 426.464 343.182 425.523 344.057C424.582 344.933 423.865 346.022 423.432 347.232L418.928 359.912C416.983 360.016 415.033 360.016 413.088 359.912L408.584 347.232C408.154 346.021 407.439 344.932 406.499 344.056C405.559 343.18 404.422 342.543 403.184 342.2C399.424 341.167 395.805 339.676 392.408 337.76C391.289 337.133 390.037 336.783 388.756 336.737C387.475 336.691 386.201 336.951 385.04 337.496L372.936 343.24C371.483 341.915 370.093 340.525 368.768 339.072L374.512 326.968C375.062 325.809 375.325 324.534 375.279 323.252C375.233 321.969 374.88 320.717 374.248 319.6C372.333 316.206 370.842 312.589 369.808 308.832C369.463 307.594 368.826 306.456 367.951 305.515C367.075 304.574 365.986 303.857 364.776 303.424L352.096 298.92C351.962 296.976 351.956 295.025 352.08 293.08L364.76 288.568C365.971 288.139 367.06 287.425 367.934 286.484C368.809 285.544 369.444 284.406 369.784 283.168C370.822 279.408 372.316 275.789 374.232 272.392C375.512 270.128 375.608 267.376 374.496 265.024L368.752 252.92C370.08 251.464 371.472 250.072 372.92 248.752L385.024 254.496C387.376 255.616 390.128 255.52 392.392 254.232C395.752 252.328 399.376 250.84 403.16 249.792C405.672 249.096 407.688 247.216 408.568 244.76L413.072 232.08C415.008 231.976 416.976 231.976 418.912 232.08L423.416 244.76C423.846 245.971 424.561 247.06 425.501 247.936C426.441 248.812 427.578 249.448 428.816 249.792C432.576 250.825 436.195 252.316 439.592 254.232C440.708 254.866 441.961 255.22 443.244 255.266C444.526 255.312 445.801 255.048 446.96 254.496L459.064 248.752C460.52 250.08 461.912 251.472 463.232 252.92L457.488 265.024C456.938 266.183 456.675 267.458 456.721 268.74C456.767 270.023 457.12 271.275 457.752 272.392C459.656 275.752 461.144 279.376 462.192 283.16C462.888 285.672 464.768 287.688 467.224 288.568L479.904 293.072C480.037 295.019 480.043 296.972 479.92 298.92Z"
    fill="#009035"
  />
  <path
    d="M176 424C224.52 424 264 384.52 264 336C264 287.48 224.52 248 176 248C127.48 248 87.9998 287.48 87.9998 336C87.9998 384.52 127.48 424 176 424ZM176 264C215.696 264 248 296.304 248 336C248 375.696 215.696 408 176 408C136.304 408 104 375.696 104 336C104 296.304 136.304 264 176 264ZM16.1758 202.872L28.4638 213.12C46.4655 191.465 69.019 174.044 94.5193 162.098C120.02 150.151 147.84 143.972 176 144C180.072 144 184.136 144.232 188.2 144.488L178.344 154.344L189.656 165.656L213.656 141.656C214.399 140.913 214.989 140.032 215.392 139.061C215.794 138.091 216.001 137.05 216.001 136C216.001 134.949 215.794 133.909 215.392 132.938C214.989 131.968 214.399 131.086 213.656 130.344L189.656 106.344L178.344 117.656L189.216 128.528C184.817 128.212 180.41 128.036 176 128C145.495 127.969 115.358 134.663 87.734 147.604C60.11 160.544 35.6777 179.415 16.1758 202.872ZM344 71.9998C321.944 71.9998 304 89.9438 304 112C304 134.056 321.944 152 344 152C366.056 152 384 134.056 384 112C384 89.9438 366.056 71.9998 344 71.9998ZM344 136C330.768 136 320 125.232 320 112C320 98.7678 330.768 87.9998 344 87.9998C357.232 87.9998 368 98.7678 368 112C368 125.232 357.232 136 344 136ZM416 264C398.352 264 384 278.352 384 296C384 313.648 398.352 328 416 328C433.648 328 448 313.648 448 296C448 278.352 433.648 264 416 264ZM416 312C407.176 312 400 304.824 400 296C400 287.176 407.176 280 416 280C424.824 280 432 287.176 432 296C432 304.824 424.824 312 416 312ZM489.568 40.1598L449.568 32.1598C448.538 31.9512 447.476 31.9481 446.445 32.1506C445.413 32.3532 444.432 32.7574 443.557 33.3402C442.682 33.9229 441.931 34.6726 441.347 35.5464C440.762 36.4202 440.356 37.4007 440.152 38.4318L432.152 78.4318L447.84 81.5758L452.152 60.0398C459.945 76.2532 463.994 94.0108 464 112C464.105 139.281 454.81 165.767 437.68 187L450.168 197.008C469.453 172.869 479.971 142.897 480 112C480 91.0478 475.16 70.3918 465.952 51.7518L486.432 55.8478L489.568 40.1598Z"
    fill="#009035"
  />
</svg>
