<svg width="72" height="72" viewBox="0 0 72 72" fill="none" xmlns="http://www.w3.org/2000/svg">
<path d="M0 21C0 12.7157 6.71573 6 15 6H67C69.7614 6 72 8.23858 72 11V51C72 59.2843 65.2843 66 57 66H5C2.23857 66 0 63.7614 0 61V21Z" fill="#FF6B00"/>
<g clip-path="url(#clip0_813_3121)">
<path fill-rule="evenodd" clip-rule="evenodd" d="M36.2824 19.7317L37.7308 23.5468C37.751 23.6021 37.7873 23.6502 37.8349 23.6848C37.8826 23.7194 37.9394 23.739 37.9983 23.7412L42.0742 23.9398C42.1356 23.9421 42.1947 23.9634 42.2434 24.0006C42.2922 24.0379 42.3282 24.0894 42.3465 24.148C42.3662 24.2061 42.3673 24.2689 42.3497 24.3278C42.3322 24.3866 42.2969 24.4385 42.2486 24.4764L39.0679 27.0329C39.0215 27.0693 38.9871 27.1186 38.9689 27.1746C38.9507 27.2305 38.9496 27.2907 38.9657 27.3473L40.0363 31.2852C40.0698 31.4085 40.0259 31.5333 39.9225 31.6084C39.8191 31.6835 39.6868 31.6868 39.5798 31.6168L36.1655 29.3817C36.1166 29.3489 36.0591 29.3313 36.0002 29.3313C35.9413 29.3313 35.8838 29.3489 35.8349 29.3817L32.4207 31.6168C32.3697 31.6509 32.3094 31.6685 32.2481 31.667C32.1867 31.6655 32.1274 31.645 32.0781 31.6084C32.0281 31.5729 31.9902 31.5228 31.9699 31.4649C31.9495 31.407 31.9475 31.3442 31.9643 31.2852L33.0349 27.3473C33.051 27.2907 33.0499 27.2305 33.0317 27.1746C33.0135 27.1186 32.979 27.0693 32.9327 27.0329L29.752 24.4764C29.7037 24.4385 29.6684 24.3866 29.6508 24.3278C29.6333 24.2689 29.6344 24.2061 29.654 24.148C29.6724 24.0894 29.7084 24.0379 29.7571 24.0006C29.8059 23.9634 29.865 23.9421 29.9264 23.9398L34.0023 23.7412C34.0611 23.739 34.118 23.7194 34.1656 23.6848C34.2133 23.6502 34.2495 23.6021 34.2697 23.5468L35.7181 19.7317C35.7635 19.6122 35.8724 19.5371 36.0003 19.5371C36.1281 19.5371 36.237 19.6122 36.2824 19.7317ZM28.3883 18.5315L30.9377 20.8271C31.0794 20.9534 31.2653 21.0185 31.4548 21.0081C31.6443 20.9977 31.822 20.9127 31.9489 20.7716C32.0759 20.6305 32.1418 20.4449 32.1322 20.2554C32.1227 20.0658 32.0384 19.8878 31.8979 19.7602L29.3485 17.4646C29.2069 17.3383 29.0209 17.2732 28.8314 17.2836C28.6419 17.294 28.4643 17.379 28.3373 17.5201C28.2104 17.6611 28.1444 17.8468 28.154 18.0363C28.1636 18.2259 28.2478 18.4039 28.3883 18.5315ZM42.6519 17.4646L40.0876 19.7736C39.9471 19.9012 39.8628 20.0792 39.8533 20.2687C39.8437 20.4583 39.9096 20.6439 40.0366 20.785C40.1635 20.9261 40.3412 21.0111 40.5307 21.0215C40.7202 21.0319 40.9061 20.9668 41.0478 20.8405L43.6121 18.5315C43.7526 18.4039 43.8368 18.2259 43.8464 18.0363C43.856 17.8468 43.7901 17.6611 43.6631 17.5201C43.5361 17.379 43.3585 17.294 43.169 17.2836C42.9795 17.2732 42.7936 17.3383 42.6519 17.4646ZM36.719 16.8672C36.719 17.0578 36.6433 17.2407 36.5085 17.3754C36.3737 17.5102 36.1909 17.586 36.0003 17.586C35.8096 17.586 35.6268 17.5102 35.492 17.3754C35.3572 17.2407 35.2815 17.0578 35.2815 16.8672V14.2295C35.2815 14.0389 35.3572 13.8561 35.492 13.7213C35.6268 13.5865 35.8096 13.5107 36.0003 13.5107C36.1909 13.5107 36.3737 13.5865 36.5085 13.7213C36.6433 13.8561 36.719 14.0389 36.719 14.2295V16.8672ZM36.0003 33.923C38.7853 33.923 41.0431 36.1807 41.0431 38.9657C41.0431 41.7508 38.7853 44.0086 36.0003 44.0086C33.2152 44.0086 30.9575 41.7508 30.9575 38.9657C30.9575 36.1807 33.2152 33.923 36.0003 33.923ZM45.9165 53.8076C45.381 48.804 41.1459 44.907 36.0003 44.907C30.8545 44.907 26.6194 48.804 26.0839 53.8076V55.8236C26.0839 57.2916 27.2813 58.4889 28.7493 58.4889H43.2511C44.7191 58.4889 45.9165 57.2916 45.9165 55.8236V53.8076ZM51.0714 37.585C53.1549 37.585 54.844 39.2742 54.844 41.3576C54.844 43.4412 53.1549 45.1303 51.0714 45.1303C48.9878 45.1303 47.2987 43.4412 47.2987 41.3576C47.2986 39.2742 48.9877 37.585 51.0714 37.585ZM20.9291 37.585C23.0127 37.585 24.7018 39.2742 24.7018 41.3576C24.7018 43.4412 23.0127 45.1303 20.9291 45.1303C18.8456 45.1303 17.1565 43.4412 17.1565 41.3576C17.1565 39.2742 18.8456 37.585 20.9291 37.585ZM20.929 46.138C23.1277 46.138 25.1042 47.0889 26.4698 48.6019C25.506 50.0612 24.867 51.7593 24.6611 53.5998H15.4293C14.8698 53.5998 14.3884 53.3566 14.0564 52.9063C13.7245 52.456 13.6345 51.9242 13.8 51.3898C14.742 48.3477 17.5776 46.138 20.929 46.138ZM51.0713 46.138C54.4229 46.138 57.2584 48.3477 58.2003 51.3898C58.3658 51.9242 58.2758 52.4559 57.9439 52.9063C57.6119 53.3567 57.1306 53.5998 56.5711 53.5998H47.3393C47.1333 51.7593 46.4942 50.0612 45.5305 48.6019C46.8962 47.0889 48.8727 46.138 51.0713 46.138ZM20.3627 19.7317L21.8111 23.5468C21.8314 23.6021 21.8676 23.6502 21.9152 23.6848C21.9629 23.7194 22.0198 23.739 22.0786 23.7412L26.1545 23.9398C26.2159 23.9421 26.275 23.9634 26.3238 24.0006C26.3725 24.0379 26.4085 24.0894 26.4269 24.148C26.4465 24.2061 26.4476 24.2689 26.4301 24.3278C26.4125 24.3866 26.3772 24.4385 26.3289 24.4764L23.1482 27.0329C23.1019 27.0693 23.0674 27.1186 23.0492 27.1746C23.031 27.2305 23.0299 27.2907 23.046 27.3473L24.1166 31.2852C24.1501 31.4085 24.1062 31.5333 24.0028 31.6084C23.8994 31.6835 23.7671 31.6868 23.6601 31.6168L20.2458 29.3817C20.1969 29.3489 20.1394 29.3313 20.0805 29.3313C20.0216 29.3313 19.9641 29.3489 19.9152 29.3817L16.501 31.6168C16.45 31.6509 16.3897 31.6685 16.3284 31.667C16.267 31.6655 16.2077 31.645 16.1584 31.6084C16.1084 31.5729 16.0706 31.5228 16.0502 31.4649C16.0298 31.407 16.0278 31.3442 16.0446 31.2852L17.1152 27.3473C17.1313 27.2907 17.1302 27.2305 17.112 27.1746C17.0938 27.1186 17.0594 27.0693 17.013 27.0329L13.8323 24.4764C13.784 24.4384 13.7487 24.3865 13.7311 24.3277C13.7136 24.2689 13.7147 24.206 13.7344 24.1479C13.7527 24.0893 13.7887 24.0378 13.8375 24.0006C13.8862 23.9633 13.9453 23.942 14.0067 23.9397L18.0826 23.7411C18.1415 23.7389 18.1983 23.7193 18.246 23.6847C18.2936 23.6501 18.3298 23.602 18.35 23.5467L19.7985 19.7317C19.8439 19.6122 19.9528 19.5371 20.0807 19.5371C20.2085 19.5371 20.3173 19.6122 20.3627 19.7317ZM52.1544 19.7317L53.6029 23.5468C53.6231 23.6021 53.6594 23.6502 53.707 23.6848C53.7546 23.7194 53.8115 23.739 53.8704 23.7412L57.9463 23.9398C58.0076 23.9421 58.0667 23.9634 58.1155 24.0006C58.1643 24.0379 58.2003 24.0894 58.2186 24.148C58.2382 24.2061 58.2393 24.2689 58.2218 24.3278C58.2043 24.3866 58.1689 24.4385 58.1207 24.4764L54.9399 27.0329C54.8936 27.0693 54.8592 27.1186 54.841 27.1746C54.8228 27.2305 54.8217 27.2907 54.8378 27.3473L55.9084 31.2852C55.9251 31.3442 55.9232 31.407 55.9028 31.4648C55.8825 31.5227 55.8447 31.5729 55.7946 31.6084C55.7454 31.645 55.686 31.6655 55.6246 31.667C55.5633 31.6685 55.5029 31.651 55.452 31.6168L52.0376 29.3817C51.9888 29.3489 51.9312 29.3313 51.8724 29.3313C51.8135 29.3313 51.7559 29.3489 51.7071 29.3817L48.2929 31.6168C48.1859 31.6868 48.0536 31.6835 47.9502 31.6084C47.8468 31.5333 47.8028 31.4084 47.8364 31.2852L48.9069 27.3473C48.9231 27.2907 48.922 27.2305 48.9038 27.1746C48.8856 27.1186 48.8511 27.0693 48.8048 27.0329L45.624 24.4764C45.5758 24.4385 45.5404 24.3866 45.5229 24.3278C45.5053 24.2689 45.5065 24.2061 45.5261 24.148C45.5444 24.0894 45.5804 24.0379 45.6292 24.0006C45.678 23.9634 45.7371 23.9421 45.7984 23.9398L49.8744 23.7412C49.9332 23.739 49.9901 23.7194 50.0377 23.6848C50.0853 23.6502 50.1216 23.6021 50.1417 23.5468L51.5902 19.7317C51.6356 19.6122 51.7445 19.5371 51.8723 19.5371C52.0002 19.5371 52.1091 19.6122 52.1544 19.7317Z" fill="white"/>
</g>
<defs>
<clipPath id="clip0_813_3121">
<rect width="46" height="46" fill="white" transform="translate(13 13)"/>
</clipPath>
</defs>
</svg>
