<svg width="72" height="72" viewBox="0 0 72 72" fill="none" xmlns="http://www.w3.org/2000/svg">
<path d="M0 21C0 12.7157 6.71573 6 15 6H67C69.7614 6 72 8.23858 72 11V51C72 59.2843 65.2843 66 57 66H5C2.23857 66 0 63.7614 0 61V21Z" fill="#FF6B00"/>
<path d="M52.3597 37.5558H48.8022C49.1648 38.5486 49.3629 39.62 49.3629 40.7366V54.1818C49.3629 54.6473 49.2819 55.0942 49.1344 55.5098H55.0157C57.2127 55.5098 58.9999 53.7225 58.9999 51.5256V44.1961C59 40.5347 56.0211 37.5558 52.3597 37.5558ZM22.6371 40.7367C22.6371 39.62 22.8352 38.5487 23.1978 37.5559H19.6404C15.9789 37.5559 13 40.5348 13 44.1963V51.5258C13 53.7227 14.7873 55.51 16.9842 55.51H22.8656C22.7142 55.0836 22.6369 54.6344 22.6371 54.1818V40.7367ZM40.0664 34.0964H31.9336C28.2721 34.0964 25.2932 37.0752 25.2932 40.7367V54.1818C25.2932 54.9152 25.8878 55.5099 26.6213 55.5099H45.3787C46.1122 55.5099 46.7068 54.9153 46.7068 54.1818V40.7367C46.7068 37.0752 43.7279 34.0964 40.0664 34.0964ZM36 16.4893C31.5966 16.4893 28.0142 20.0717 28.0142 24.4752C28.0142 27.4621 29.6627 30.0707 32.0973 31.4402C33.252 32.0898 34.5833 32.461 36 32.461C37.4167 32.461 38.748 32.0898 39.9027 31.4402C42.3374 30.0707 43.9859 27.462 43.9859 24.4752C43.9859 20.0718 40.4034 16.4893 36 16.4893ZM21.977 23.9327C18.6838 23.9327 16.0046 26.6119 16.0046 29.9051C16.0046 33.1983 18.6838 35.8774 21.977 35.8774C22.7863 35.8781 23.5872 35.7134 24.3305 35.3934C25.5798 34.8555 26.61 33.9033 27.2474 32.7106C27.7092 31.8477 27.9503 30.8838 27.9494 29.9051C27.9494 26.612 25.2702 23.9327 21.977 23.9327ZM50.023 23.9327C46.7298 23.9327 44.0506 26.6119 44.0506 29.9051C44.0496 30.8838 44.2908 31.8477 44.7526 32.7106C45.39 33.9034 46.4202 34.8556 47.6695 35.3934C48.4128 35.7134 49.2137 35.8781 50.023 35.8774C53.3162 35.8774 55.9954 33.1983 55.9954 29.9051C55.9954 26.6119 53.3162 23.9327 50.023 23.9327Z" fill="white"/>
</svg>
