<svg
  xmlns="http://www.w3.org/2000/svg"
  version="1.1"
  xmlns:xlink="http://www.w3.org/1999/xlink"
  width="512"
  height="512"
  x="0"
  y="0"
  viewBox="0 0 24 24"
  style="enable-background: new 0 0 512 512"
  xml:space="preserve"
  class=""
>
  <g>
    <g data-name="Layer 2">
      <path
        d="M12 18.53a11.71 11.71 0 0 1-7.44-2.65l-3.09-2.53a1.74 1.74 0 0 1 0-2.7l3.09-2.53a11.78 11.78 0 0 1 14.88 0l3.09 2.53a1.74 1.74 0 0 1 0 2.7l-3.09 2.53A11.69 11.69 0 0 1 12 18.53zM12 7a10.22 10.22 0 0 0-6.49 2.28l-3.09 2.53a.25.25 0 0 0 0 .38l3.09 2.53a10.27 10.27 0 0 0 13 0l3.09-2.53a.25.25 0 0 0 0-.38l-3.11-2.53A10.24 10.24 0 0 0 12 7z"
        fill="#009035"
        opacity="1"
        data-original="#009035"
      ></path>
      <path
        d="M12 18.25A6.25 6.25 0 1 1 18.25 12 6.25 6.25 0 0 1 12 18.25zm0-11A4.75 4.75 0 1 0 16.75 12 4.75 4.75 0 0 0 12 7.25z"
        fill="#009035"
        opacity="1"
        data-original="#009035"
      ></path>
      <path
        d="M15 12a3 3 0 1 1-2.2-2.89 1.47 1.47 0 0 0-.3.89 1.5 1.5 0 0 0 1.5 1.5 1.47 1.47 0 0 0 .89-.3 3 3 0 0 1 .11.8z"
        fill="#009035"
        opacity="1"
        data-original="#009035"
      ></path>
    </g>
  </g>
</svg>
